<svg id="Capa_1" enable-background="new 0 0 512 512" height="512" viewBox="0 0 512 512" width="512" xmlns="http://www.w3.org/2000/svg"><g><g><path d="m436 239.2-60-30-60 30-60-30-60 30-60-30-60 30-45-22.5v280.3h270v-76h-180v-90h270v166h90v-280.3z" fill="#fff7e6"/></g><g fill="#ffeacc"><path d="m256 421h45v76h-45z"/><path d="m391 331v166h90v-280.3l-45 22.5-60-30-60 30-60-30v121.8z"/></g><path d="m61 0v71.499l195 30 195-30v-71.499z" fill="#ffeacc"/><path d="m451 0h-195v101.499l195-30z" fill="#ffd9b3"/><g><path d="m301 451h-210v-150h180c16.569 0 30 13.431 30 30z" fill="#665151"/></g><g id="Store_1_"><g><path d="m136 161.499 30 40.651-30 40.65-60 30-75-37.5v-73.801l67.5-30z" fill="#ffb95a"/></g></g><path d="m167.199 71.499 14.401 45-45.6 45h-135l60-90z" fill="#ffdc73"/><path d="m256 161.499 30 40.651-30 40.65-60 30-60-30v-81.301l60-30z" fill="#f25a3c"/><path d="m376 161.499 30 40.651-30 40.65-60 30-60-30v-81.301l60-30z" fill="#ffb95a"/><path d="m511 161.499v73.801l-75 37.5-60-30v-81.301l67.5-30z" fill="#e63a3a"/><path d="m256 71.499 30 45-30 45h-120l31.199-90z" fill="#ff7f40"/><path d="m376 161.499h-120v-90h88.801l45.664 45.186z" fill="#ffdc73"/><path d="m511 161.499h-135l-31.199-90h106.199z" fill="#f25a3c"/><path d="m271 301h-75v150h105v-120c0-16.569-13.431-30-30-30z" fill="#4d3535"/><g><g><path d="m421 421v-120h-150v196h150v-46l-30-15z" fill="#b36a36"/></g></g><g><path d="m361 421h60v30h-60z" fill="#4d3535"/></g><g><path d="m0 482h512v30h-512z" fill="#a0e65c"/></g><path d="m256 482h256v30h-256z" fill="#79cc52"/></g></svg>